<?xml version="1.0" encoding="utf-8"?>
<!-- Generator: Adobe Illustrator 19.2.1, SVG Export Plug-In . SVG Version: 6.00 Build 0)  -->
<svg version="1.1" id="Layer_1" xmlns="http://www.w3.org/2000/svg" xmlns:xlink="http://www.w3.org/1999/xlink" x="0px" y="0px"
	 viewBox="0 0 512 512" style="enable-background:new 0 0 512 512;" xml:space="preserve">
<style type="text/css">
	.st0{fill:#3190B8;}
</style>
<g>
	<polygon class="st0" points="61.9,111.2 22.2,111.2 22.2,144.9 61.9,144.9 61.9,239.1 16.9,239.1 16.9,272.9 61.9,272.9 
		61.9,367.1 16.9,367.1 16.9,400.8 61.9,400.8 61.9,512 140.7,512 140.7,0 61.9,0 	"/>
	<path class="st0" d="M174.4,0v512h320.7V0H174.4z M334.8,152.9c27.4,0,49.7,22.2,49.7,49.7s-22.2,49.7-49.7,49.7
		c-27.4,0-49.7-22.2-49.7-49.7S307.3,152.9,334.8,152.9z M244.7,359.1c0-49.7,40.3-90,90-90s90,40.3,90,90H244.7z"/>
</g>
</svg>
