<?xml version="1.0" encoding="utf-8"?>
<!-- Generator: Adobe Illustrator 19.2.1, SVG Export Plug-In . SVG Version: 6.00 Build 0)  -->
<svg version="1.1" id="Capa_1" xmlns="http://www.w3.org/2000/svg" xmlns:xlink="http://www.w3.org/1999/xlink" x="0px" y="0px"
	 viewBox="0 0 512 512" style="enable-background:new 0 0 512 512;" xml:space="preserve">
<style type="text/css">
	.st0{fill:#3190B8;}
</style>
<g>
	<g>
		<rect x="103.6" y="326.1" class="st0" width="302.2" height="6.1"/>
		<path class="st0" d="M395.9,152.1H117.4v146.7h278.5V152.1L395.9,152.1z M208.7,212.1l-11.9,38.8c-2.3,7.7-4.1,8.8-10.6,8.8
			c-6.8,0-8.5-2-10.2-8.5l-8-32h-0.2l-8,32c-1.7,6.5-3.3,8.5-10.2,8.5c-6.5,0-8.3-1.1-10.6-8.8l-12-38.8c-0.6-1.8-1.1-3.6-1.1-6
			c0-4.2,3.8-7.6,7.9-7.6c6,0,6.9,3.2,8,7.9l8.6,35.7h0.2l6.9-32.5c1.3-6.4,2.7-11.4,10.3-11.2c7.7-0.2,9.3,4.7,10.7,11.2l7,32.5
			h0.2l8-35.7c1-4.7,2-7.9,8-7.9c4.1,0,7.9,3.3,7.9,7.6C209.8,208.5,209.2,210.3,208.7,212.1z M295.5,212.1l-11.9,38.8
			c-2.3,7.7-4.1,8.8-10.6,8.8c-6.8,0-8.5-2-10.2-8.5l-8-32h-0.2l-8,32c-1.7,6.5-3.3,8.5-10.2,8.5c-6.5,0-8.2-1.1-10.6-8.8
			l-11.9-38.8c-0.6-1.8-1.1-3.6-1.1-6c0-4.2,3.8-7.6,7.9-7.6c6,0,6.9,3.2,8,7.9l8.6,35.7h0.2l6.9-32.5c1.3-6.4,2.7-11.4,10.3-11.2
			c7.7-0.2,9.3,4.7,10.7,11.2l7,32.5h0.2l8-35.7c1-4.7,2-7.9,8-7.9c4.1,0,7.9,3.3,7.9,7.6C296.6,208.5,296,210.3,295.5,212.1z
			 M382.3,212.1l-11.9,38.8c-2.3,7.7-4.1,8.8-10.6,8.8c-6.8,0-8.5-2-10.2-8.5l-8-32h-0.2l-8,32c-1.7,6.5-3.3,8.5-10.2,8.5
			c-6.5,0-8.2-1.1-10.6-8.8l-11.9-38.8c-0.6-1.8-1.1-3.6-1.1-6c0-4.2,3.8-7.6,7.9-7.6c6,0,6.9,3.2,8,7.9l8.6,35.7h0.2l6.9-32.5
			c1.3-6.4,2.7-11.4,10.3-11.2c7.7-0.2,9.3,4.7,10.7,11.2l7,32.5h0.2l8-35.7c1-4.7,2-7.9,8-7.9c4.1,0,7.9,3.3,7.9,7.6
			C383.4,208.5,382.8,210.3,382.3,212.1z"/>
		<path class="st0" d="M256,0C114.6,0,0,114.6,0,256s114.6,256,256,256s256-114.6,256-256S397.4,0,256,0z M416.7,337.6
			c0,3-2.4,5.5-5.5,5.5H317l21.3,63.7c0.9,2.9-0.6,6-3.4,6.9c-0.6,0.2-1.2,0.3-1.7,0.3c-2.3,0-4.4-1.4-5.2-3.7l-22.4-67.1h-99.3
			l-18,66.8c-0.7,2.4-2.9,4-5.3,4c-0.5,0-0.9-0.1-1.4-0.2c-2.9-0.8-4.6-3.8-3.9-6.7l17.3-64H98.1c-3,0-5.5-2.4-5.5-5.5v-17
			c0-3,2.4-5.5,5.5-5.5h313.1c3,0,5.5,2.4,5.5,5.5V337.6L416.7,337.6L416.7,337.6z M106.5,304.3V146.7c0-3,2.4-5.5,5.5-5.5h289.5
			c3,0,5.5,2.4,5.5,5.5v157.6c0,3-2.5,5.5-5.5,5.5H111.9C108.9,309.7,106.5,307.3,106.5,304.3z M416.7,130.3c0,3-2.4,5.5-5.5,5.5
			H98.1c-3,0-5.5-2.4-5.5-5.5v-17c0-3,2.4-5.5,5.5-5.5h313.1c3,0,5.5,2.4,5.5,5.5V130.3L416.7,130.3z"/>
		<rect x="103.6" y="118.8" class="st0" width="302.2" height="6.1"/>
	</g>
</g>
</svg>
