<?xml version="1.0" encoding="utf-8"?>
<!-- Generator: Adobe Illustrator 19.2.1, SVG Export Plug-In . SVG Version: 6.00 Build 0)  -->
<svg version="1.1" id="Layer_1" xmlns="http://www.w3.org/2000/svg" xmlns:xlink="http://www.w3.org/1999/xlink" x="0px" y="0px"
	 viewBox="0 0 512 512" style="enable-background:new 0 0 512 512;" xml:space="preserve">
<style type="text/css">
	.st0{opacity:0.75;}
	.st1{fill:#FFFFFF;}
</style>
<g class="st0">
	<g>
		<g>
			<path class="st1" d="M458.8,184.1H135.4c-21.5,0-39.1-17.5-39.1-39.1v-19.9c0-21.5,17.5-39.1,39.1-39.1h323.3
				c21.5,0,39.1,17.5,39.1,39.1V145C497.8,166.5,480.3,184.1,458.8,184.1L458.8,184.1z M135.4,115.9c-5,0-9.1,4.1-9.1,9.1V145
				c0,5,4.1,9.1,9.1,9.1h323.3c5,0,9.1-4.1,9.1-9.1v-19.9c0-5-4.1-9.1-9.1-9.1H135.4z"/>
		</g>
		<g>
			<path class="st1" d="M309.9,298.8H135.4c-21.5,0-39.1-17.5-39.1-39.1v-19.9c0-21.5,17.5-39.1,39.1-39.1h174.5
				c21.5,0,39.1,17.5,39.1,39.1v19.9C349,281.2,331.5,298.8,309.9,298.8z M135.4,230.6c-5,0-9.1,4.1-9.1,9.1v19.9
				c0,5,4.1,9.1,9.1,9.1h174.5c5,0,9.1-4.1,9.1-9.1v-19.9c0-5-4.1-9.1-9.1-9.1H135.4z"/>
		</g>
		<g>
			<path class="st1" d="M393.1,413.5H135.4c-21.5,0-39.1-17.5-39.1-39.1v-19.9c0-21.5,17.5-39.1,39.1-39.1h257.6
				c21.5,0,39.1,17.5,39.1,39.1v19.9C432.1,395.9,414.6,413.5,393.1,413.5L393.1,413.5z M135.4,345.3c-5,0-9.1,4.1-9.1,9.1v19.9
				c0,5,4.1,9.1,9.1,9.1h257.6c5,0,9.1-4.1,9.1-9.1v-19.9c0-5-4.1-9.1-9.1-9.1H135.4z"/>
		</g>
	</g>
	<g>
		<g>
			<g>
				<path class="st1" d="M469.6,477.9H54.4c-8.3,0-15-6.7-15-15V38.4c0-8.3,6.7-15,15-15s15,6.7,15,15v409.6h400.2
					c8.3,0,15,6.7,15,15S477.9,477.9,469.6,477.9z"/>
			</g>
		</g>
		<path class="st1" d="M456,512c-4.1,0-8.1-1.6-11.1-4.9c-5.6-6.1-5.1-15.6,1-21.1l24.7-22.5l-22.5-24.7c-5.6-6.1-5.1-15.6,1-21.1
			c6.1-5.6,15.6-5.1,21.1,1l32.5,35.7c2.7,2.9,4.1,6.8,3.9,10.8c-0.2,4-1.9,7.7-4.9,10.4l-35.7,32.5C463.2,510.7,459.6,512,456,512
			L456,512z"/>
		<path class="st1" d="M88.6,65.1c-4,0-7.9-1.6-10.9-4.7L54.8,36.1L30.5,59c-6,5.7-15.5,5.4-21.1-0.6C3.7,52.4,4,42.9,10,37.2
			L45.1,4.1c6-5.7,15.5-5.4,21.1,0.6l33.2,35.2c5.7,6,5.4,15.5-0.6,21.1C95.9,63.7,92.3,65.1,88.6,65.1z"/>
	</g>
</g>
</svg>
