<?xml version="1.0" encoding="utf-8"?>
<!-- Generator: Adobe Illustrator 19.2.1, SVG Export Plug-In . SVG Version: 6.00 Build 0)  -->
<svg version="1.1" id="Capa_1" xmlns="http://www.w3.org/2000/svg" xmlns:xlink="http://www.w3.org/1999/xlink" x="0px" y="0px"
	 viewBox="0 0 512 512" style="enable-background:new 0 0 512 512;" xml:space="preserve">
<style type="text/css">
	.st0{opacity:0.75;}
	.st1{fill:#FFFFFF;}
</style>
<g class="st0">
	<path class="st1" d="M297.3,214.7H26.6c-11.9,0-21.7-9.7-21.7-21.7v-22.6c0-11.9,9.7-21.7,21.7-21.7h270.7
		c11.9,0,21.7,9.7,21.7,21.7V193C319,204.9,309.3,214.7,297.3,214.7z M26.6,168.4c-1.1,0-1.9,0.9-1.9,1.9V193c0,1.1,0.9,1.9,1.9,1.9
		h270.7c1.1,0,1.9-0.9,1.9-1.9v-22.6c0-1.1-0.9-1.9-1.9-1.9H26.6z M297.3,140.3H26.6c-11.9,0-21.7-9.7-21.7-21.7V96
		c0-11.9,9.7-21.7,21.7-21.7h270.7c11.9,0,21.7,9.7,21.7,21.7v22.7C319,130.6,309.3,140.3,297.3,140.3z M26.6,94.1
		c-1.1,0-1.9,0.9-1.9,1.9v22.7c0,1.1,0.9,1.9,1.9,1.9h270.7c1.1,0,1.9-0.9,1.9-1.9V96c0-1.1-0.9-1.9-1.9-1.9
		C297.3,94.1,26.6,94.1,26.6,94.1z M297.3,66H26.6C14.7,66,4.9,56.3,4.9,44.3V21.7C4.9,9.7,14.7,0,26.6,0h270.7
		C309.3,0,319,9.7,319,21.7v22.7C319,56.3,309.3,66,297.3,66z M26.6,19.7c-1.1,0-1.9,0.9-1.9,1.9v22.7c0,1.1,0.9,1.9,1.9,1.9h270.7
		c1.1,0,1.9-0.9,1.9-1.9V21.7c0-1.1-0.9-1.9-1.9-1.9L26.6,19.7L26.6,19.7z M350.2,512c-86.5,0-156.8-70.4-156.8-156.8
		c0-86.5,70.4-156.8,156.8-156.8c86.5,0,156.8,70.4,156.8,156.8C507.1,441.6,436.7,512,350.2,512z M350.2,218.1
		c-75.6,0-137.1,61.5-137.1,137.1s61.5,137.1,137.1,137.1c75.6,0,137.1-61.5,137.1-137.1C487.3,279.6,425.8,218.1,350.2,218.1z
		 M297.3,512H26.6c-11.9,0-21.7-9.7-21.7-21.7v-22.7c0-11.9,9.7-21.7,21.7-21.7h221.1l2.9,3.1c16.5,17.5,37.2,30.4,59.9,37.3
		l11.5,3.5l-5.7,10.6C312.5,507.6,305.2,512,297.3,512z M26.6,465.7c-1.1,0-1.9,0.9-1.9,1.9v22.7c0,1.1,0.9,1.9,1.9,1.9h247.6
		c-12.8-7.1-24.6-16.1-35-26.5H26.6z M239.6,437.7h-213c-11.9,0-21.7-9.7-21.7-21.7v-22.7c0-11.9,9.7-21.7,21.7-21.7H214l1.5,8.1
		c2.8,15.2,8,29.8,15.7,43.1L239.6,437.7z M26.6,391.4c-1.1,0-1.9,0.9-1.9,1.9V416c0,1.1,0.9,1.9,1.9,1.9h180
		c-3.7-8.5-6.7-17.4-8.9-26.5L26.6,391.4L26.6,391.4z M213.1,363.3H26.6c-11.9,0-21.7-9.7-21.7-21.7V319c0-11.9,9.7-21.7,21.7-21.7
		h198.7l-4.5,13.1c-4.8,14-7.4,28.5-7.5,43.2L213.1,363.3z M26.6,317.1c-1.1,0-1.9,0.9-1.9,1.9v22.7c0,1.1,0.9,1.9,1.9,1.9h167.3
		c0.7-8.9,2.1-17.8,4.3-26.5H26.6z M230.2,289H26.6c-11.9,0-21.7-9.7-21.7-21.7v-22.7c0-11.9,9.7-21.7,21.7-21.7h274.7l-27.1,18.1
		c-16.5,11-30.7,25.9-41.2,43.2L230.2,289z M26.6,242.7c-1.1,0-1.9,0.9-1.9,1.9v22.7c0,1.1,0.9,1.9,1.9,1.9h192.6
		c6.3-9.6,13.7-18.5,21.9-26.5L26.6,242.7L26.6,242.7z M361.2,303.6h27.1v25.3h-51.2c-1.8,0-3.3,0.6-4.5,1.8s-1.9,2.6-1.9,4.3
		c0,1.8,0.6,3.3,1.9,4.5c1.2,1.2,2.7,1.9,4.5,1.9h26.4c4.3,0,8.4,0.7,12.2,2.2c3.8,1.5,7.2,3.5,10,6.1c2.9,2.6,5.1,5.7,6.8,9.4
		s2.5,7.6,2.5,11.9c0,4.4-0.8,8.5-2.5,12.4c-1.7,3.9-3.9,7.2-6.8,10c-2.9,2.8-6.2,5.1-10,6.7c-3.8,1.7-7.9,2.5-12.2,2.5h-2.2v35.5
		H340v-35.5h-34.3v-25.1h57.8c1.6,0,3-0.6,4.3-1.9s1.9-2.8,1.9-4.6c0-1.8-0.6-2.9-1.9-3.4c-1.2-0.5-2.7-0.7-4.3-0.7h-26.4
		c-4.4,0-8.5-0.8-12.3-2.5c-3.8-1.7-7.1-3.9-9.9-6.8c-2.8-2.9-5.1-6.3-6.7-10.1c-1.7-3.8-2.5-8-2.5-12.4c0-4.3,0.8-8.4,2.5-12.2
		s3.9-7.2,6.7-10s6.1-5.1,9.9-6.8c3.8-1.7,7.9-2.5,12.3-2.5h2.9v-31.3h21.3L361.2,303.6L361.2,303.6z"/>
</g>
</svg>
