<?xml version="1.0" encoding="utf-8"?>
<!-- Generator: Adobe Illustrator 19.2.1, SVG Export Plug-In . SVG Version: 6.00 Build 0)  -->
<svg version="1.1" id="Capa_1" xmlns="http://www.w3.org/2000/svg" xmlns:xlink="http://www.w3.org/1999/xlink" x="0px" y="0px"
	 viewBox="0 0 512 512" style="enable-background:new 0 0 512 512;" xml:space="preserve">
<style type="text/css">
	.st0{opacity:0.75;}
	.st1{fill:#FFFFFF;}
</style>
<g class="st0">
	<g>
		<path class="st1" d="M457.4,121.4c-1.5-3.5-3.7-6.8-6.5-9.4L342.9,8.1c-2.7-2.5-5.7-4.6-9.1-5.9l0,0c-3.4-1.4-7-2.1-10.7-2.1
			H115.6c-35,0-63.3,28.3-63.3,63.3v385.4c0,35,28.3,63.3,63.3,63.3h280.8c35,0,63.3-28.3,63.3-63.3v-316
			C459.7,128.8,458.9,125,457.4,121.4z M429.8,448.8c0,18.5-15.1,33.4-33.4,33.4H115.6c-18.5,0-33.4-15.1-33.4-33.4V63.4
			c0-18.5,15-33.4,33.4-33.4h198v48.5c0,34.9,28.4,63.3,63.3,63.3h52.9L429.8,448.8L429.8,448.8z"/>
		<path class="st1" d="M116.7,256.1L116.7,256.1c0,8.2,6.7,15,15,15H383c8.2,0,15-6.7,15-15l0,0c0-8.2-6.7-15-15-15H131.6
			C123.3,241.2,116.7,247.9,116.7,256.1z"/>
		<path class="st1" d="M382.9,300.9H131.6c-8.2,0-15,6.7-15,15l0,0c0,8.2,6.7,15,15,15H383c8.2,0,15-6.7,15-15l0,0
			C397.9,307.5,391.2,300.9,382.9,300.9z"/>
		<path class="st1" d="M382.9,360.6H131.6c-8.2,0-15,6.7-15,15l0,0c0,8.2,6.7,15,15,15H383c8.2,0,15-6.7,15-15l0,0
			C397.9,367.2,391.2,360.6,382.9,360.6z"/>
		<path class="st1" d="M270.5,420.2H130.3c-8.2,0-15,6.7-15,15c0,8.3,6.7,15,15,15h140.3c8.2,0,15-6.7,15-15
			C285.6,426.8,278.8,420.2,270.5,420.2z"/>
		<path class="st1" d="M182.6,213.5h65.6c-0.3-27.3,0.7-41.9-17-48.4c-16.1-6.2-25.7-12.4-25.7-12.4l-12.4,39.1l-1.7,5.3l-5.5-15.7
			c12.7-17.8-1-18.7-3.4-18.7l0,0l0,0l0,0l0,0l0,0l0,0c-2.3,0-16.1,0.8-3.4,18.7l-5.5,15.7l-1.7-5.3l-12.5-39.1
			c0,0-9.7,6.3-25.7,12.4c-17.7,6.5-16.6,21-17,48.4h62.4L182.6,213.5L182.6,213.5z"/>
		<path class="st1" d="M154.6,127.9c1.4,9.2,8.5,20.9,20.1,25c4.8,1.7,10.1,1.7,14.8,0c11.5-4.1,18.8-15.8,20.3-25
			c1.6-0.1,3.6-2.3,5.7-10.1c3-10.6-0.2-12.2-2.9-11.9c0.5-1.5,1-2.9,1.2-4.3c4.6-27.4-8.9-28.3-8.9-28.3s-2.2-4.3-8.2-7.5
			c-3.9-2.3-9.4-4.1-16.6-3.5c-2.3,0.1-4.6,0.5-6.7,1.3l0,0c-2.7,0.8-5.1,2.2-7.3,3.7c-2.8,1.7-5.3,3.8-7.5,6.3
			c-3.6,3.6-6.8,8.4-8.2,14.3c-1.2,4.5-0.8,9,0.1,13.9l0,0c0.2,1.5,0.6,2.9,1.2,4.3c-2.7-0.2-5.8,1.3-2.9,11.9
			C151.1,125.6,153.1,127.8,154.6,127.9z"/>
	</g>
</g>
</svg>
