<?xml version="1.0" encoding="iso-8859-1"?>
<!-- Generator: Adobe Illustrator 16.0.0, SVG Export Plug-In . SVG Version: 6.00 Build 0)  -->
<!DOCTYPE svg PUBLIC "-//W3C//DTD SVG 1.1//EN" "http://www.w3.org/Graphics/SVG/1.1/DTD/svg11.dtd">
<svg xmlns="http://www.w3.org/2000/svg" xmlns:xlink="http://www.w3.org/1999/xlink" version="1.1" id="Capa_1" x="0px" y="0px" width="512px" height="512px" viewBox="0 0 83.818 83.818" style="enable-background:new 0 0 83.818 83.818;" xml:space="preserve">
<g>
	<g>
		<path d="M42.199,23.847c-9.959,0-18.062,8.103-18.062,18.063c0,9.959,8.103,18.061,18.062,18.061s18.062-8.102,18.062-18.061    C60.261,31.95,52.158,23.847,42.199,23.847z M41.735,53.357c-1.393,0-2.537-1.146-2.537-2.537c0-1.393,1.145-2.537,2.537-2.537    c1.393,0,2.537,1.145,2.537,2.537C44.272,52.212,43.128,53.357,41.735,53.357z M44.149,43.672c-0.743,1.084-0.496,2.6-2.538,2.6    c-1.331,0-1.979-1.081-1.979-2.071c0-3.682,5.414-4.518,5.414-7.551c0-1.67-1.113-2.66-2.971-2.66    c-3.959,0-2.413,4.084-5.414,4.084c-1.083,0-2.012-0.649-2.012-1.887c0-3.032,3.467-5.725,7.24-5.725    c3.961,0,7.859,1.826,7.859,6.188C49.749,40.672,45.138,42.219,44.149,43.672z" fill="#FFFFFF"/>
		<path d="M41.909,0C18.764,0,0.001,18.764,0.001,41.91c0,23.145,18.764,41.908,41.908,41.908c23.146,0,41.908-18.764,41.908-41.908    C83.817,18.763,65.056,0,41.909,0z M42.199,61.971c-11.062,0-20.062-8.998-20.062-20.061c0-11.063,9-20.063,20.062-20.063    c11.062,0,20.062,9,20.062,20.063C62.261,52.973,53.261,61.971,42.199,61.971z" fill="#FFFFFF"/>
	</g>
</g>
<g>
</g>
<g>
</g>
<g>
</g>
<g>
</g>
<g>
</g>
<g>
</g>
<g>
</g>
<g>
</g>
<g>
</g>
<g>
</g>
<g>
</g>
<g>
</g>
<g>
</g>
<g>
</g>
<g>
</g>
</svg>
